<mxfile host="Electron" modified="2024-01-30T22:12:24.027Z" agent="Mozilla/5.0 (Windows NT 10.0; Win64; x64) AppleWebKit/537.36 (KHTML, like Gecko) draw.io/23.0.2 Chrome/120.0.6099.109 Electron/28.1.0 Safari/537.36" etag="JCA9CvSCtJX9wrqfEFfg" version="23.0.2" type="device">
  <diagram id="C5RBs43oDa-KdzZeNtuy" name="Page-1">
    <mxGraphModel dx="2074" dy="1605" grid="0" gridSize="10" guides="1" tooltips="1" connect="1" arrows="1" fold="1" page="0" pageScale="1" pageWidth="827" pageHeight="1169" background="none" math="0" shadow="0">
      <root>
        <mxCell id="WIyWlLk6GJQsqaUBKTNV-0" />
        <mxCell id="WIyWlLk6GJQsqaUBKTNV-1" parent="WIyWlLk6GJQsqaUBKTNV-0" />
        <mxCell id="WIyWlLk6GJQsqaUBKTNV-2" value="" style="rounded=0;html=1;jettySize=auto;orthogonalLoop=1;fontSize=11;endArrow=block;endFill=0;endSize=8;strokeWidth=1;shadow=0;labelBackgroundColor=none;edgeStyle=orthogonalEdgeStyle;exitX=1;exitY=0.5;exitDx=0;exitDy=0;noEdgeStyle=1;orthogonal=1;entryX=0;entryY=0.5;entryDx=0;entryDy=0;" parent="WIyWlLk6GJQsqaUBKTNV-1" source="WIyWlLk6GJQsqaUBKTNV-3" target="s4BdupJoC0_CT1MNcl7A-2" edge="1">
          <mxGeometry relative="1" as="geometry">
            <mxPoint x="140" y="209.97" as="sourcePoint" />
            <mxPoint x="270" y="210" as="targetPoint" />
          </mxGeometry>
        </mxCell>
        <mxCell id="s4BdupJoC0_CT1MNcl7A-29" style="edgeStyle=orthogonalEdgeStyle;rounded=0;orthogonalLoop=1;jettySize=auto;html=1;entryX=0.5;entryY=0;entryDx=0;entryDy=0;dashed=1;noEdgeStyle=1;orthogonal=1;exitX=0.5;exitY=1;exitDx=0;exitDy=0;" parent="WIyWlLk6GJQsqaUBKTNV-1" target="s4BdupJoC0_CT1MNcl7A-23" edge="1" source="WIyWlLk6GJQsqaUBKTNV-3">
          <mxGeometry relative="1" as="geometry">
            <mxPoint x="145.52" y="40.00000000000006" as="sourcePoint" />
            <mxPoint x="161.03666666666666" y="1784" as="targetPoint" />
          </mxGeometry>
        </mxCell>
        <mxCell id="WIyWlLk6GJQsqaUBKTNV-3" value="INPUT" style="rounded=0;whiteSpace=wrap;html=1;fontSize=12;glass=0;strokeWidth=1;shadow=1;" parent="WIyWlLk6GJQsqaUBKTNV-1" vertex="1">
          <mxGeometry y="39.44444444444445" width="120" height="40" as="geometry" />
        </mxCell>
        <mxCell id="s4BdupJoC0_CT1MNcl7A-10" value="" style="edgeStyle=orthogonalEdgeStyle;rounded=0;orthogonalLoop=1;jettySize=auto;html=1;noEdgeStyle=1;orthogonal=1;entryX=0;entryY=0.5;entryDx=0;entryDy=0;" parent="WIyWlLk6GJQsqaUBKTNV-1" source="s4BdupJoC0_CT1MNcl7A-0" target="s4BdupJoC0_CT1MNcl7A-7" edge="1">
          <mxGeometry relative="1" as="geometry" />
        </mxCell>
        <mxCell id="s4BdupJoC0_CT1MNcl7A-0" value="Pré Processamento&lt;br&gt;de Imagem" style="rounded=0;whiteSpace=wrap;html=1;shadow=1;" parent="WIyWlLk6GJQsqaUBKTNV-1" vertex="1">
          <mxGeometry x="419" y="-23" width="110" height="60" as="geometry" />
        </mxCell>
        <mxCell id="s4BdupJoC0_CT1MNcl7A-3" style="edgeStyle=orthogonalEdgeStyle;rounded=0;orthogonalLoop=1;jettySize=auto;html=1;noEdgeStyle=1;orthogonal=1;exitX=1;exitY=0.5;exitDx=0;exitDy=0;" parent="WIyWlLk6GJQsqaUBKTNV-1" source="s4BdupJoC0_CT1MNcl7A-2" edge="1">
          <mxGeometry relative="1" as="geometry">
            <Array as="points">
              <mxPoint x="306" y="9" />
            </Array>
            <mxPoint x="421" y="9" as="targetPoint" />
          </mxGeometry>
        </mxCell>
        <mxCell id="s4BdupJoC0_CT1MNcl7A-4" value="Não" style="edgeLabel;html=1;align=center;verticalAlign=middle;resizable=0;points=[];fontSize=18;fontStyle=1" parent="s4BdupJoC0_CT1MNcl7A-3" vertex="1" connectable="0">
          <mxGeometry x="0.128" y="2" relative="1" as="geometry">
            <mxPoint as="offset" />
          </mxGeometry>
        </mxCell>
        <mxCell id="s4BdupJoC0_CT1MNcl7A-12" style="edgeStyle=orthogonalEdgeStyle;rounded=0;orthogonalLoop=1;jettySize=auto;html=1;noEdgeStyle=1;orthogonal=1;entryX=0;entryY=0.5;entryDx=0;entryDy=0;exitX=1;exitY=0.5;exitDx=0;exitDy=0;" parent="WIyWlLk6GJQsqaUBKTNV-1" source="s4BdupJoC0_CT1MNcl7A-15" target="s4BdupJoC0_CT1MNcl7A-9" edge="1">
          <mxGeometry relative="1" as="geometry" />
        </mxCell>
        <mxCell id="s4BdupJoC0_CT1MNcl7A-2" value="Pré OCR?" style="rhombus;whiteSpace=wrap;html=1;" parent="WIyWlLk6GJQsqaUBKTNV-1" vertex="1">
          <mxGeometry x="226" y="19.44444444444445" width="80" height="80" as="geometry" />
        </mxCell>
        <mxCell id="s4BdupJoC0_CT1MNcl7A-21" value="" style="edgeStyle=orthogonalEdgeStyle;rounded=0;orthogonalLoop=1;jettySize=auto;html=1;noEdgeStyle=1;orthogonal=1;exitX=0;exitY=0.5;exitDx=0;exitDy=0;entryX=1;entryY=0.5;entryDx=0;entryDy=0;" parent="WIyWlLk6GJQsqaUBKTNV-1" source="s4BdupJoC0_CT1MNcl7A-6" target="s4BdupJoC0_CT1MNcl7A-19" edge="1">
          <mxGeometry relative="1" as="geometry" />
        </mxCell>
        <mxCell id="a2rusE7PsjsFtb0XOWE--1" style="edgeStyle=orthogonalEdgeStyle;rounded=0;orthogonalLoop=1;jettySize=auto;html=1;dashed=1;" edge="1" parent="WIyWlLk6GJQsqaUBKTNV-1" source="s4BdupJoC0_CT1MNcl7A-6" target="s4BdupJoC0_CT1MNcl7A-0">
          <mxGeometry relative="1" as="geometry">
            <Array as="points">
              <mxPoint x="1129" y="202" />
              <mxPoint x="1129" y="-75" />
              <mxPoint x="474" y="-75" />
            </Array>
          </mxGeometry>
        </mxCell>
        <mxCell id="s4BdupJoC0_CT1MNcl7A-6" value="Análise de resultados&lt;br&gt;OCR" style="rounded=0;whiteSpace=wrap;html=1;shadow=1;" parent="WIyWlLk6GJQsqaUBKTNV-1" vertex="1">
          <mxGeometry x="975" y="172.00444444444446" width="120" height="60" as="geometry" />
        </mxCell>
        <mxCell id="s4BdupJoC0_CT1MNcl7A-11" style="edgeStyle=orthogonalEdgeStyle;rounded=0;orthogonalLoop=1;jettySize=auto;html=1;exitX=1;exitY=0.5;exitDx=0;exitDy=0;noEdgeStyle=1;orthogonal=1;" parent="WIyWlLk6GJQsqaUBKTNV-1" source="s4BdupJoC0_CT1MNcl7A-7" target="s4BdupJoC0_CT1MNcl7A-15" edge="1">
          <mxGeometry relative="1" as="geometry">
            <Array as="points">
              <mxPoint x="853" y="9" />
            </Array>
          </mxGeometry>
        </mxCell>
        <mxCell id="s4BdupJoC0_CT1MNcl7A-7" value="Reconhecimento de Texto" style="rounded=0;whiteSpace=wrap;html=1;shadow=1;" parent="WIyWlLk6GJQsqaUBKTNV-1" vertex="1">
          <mxGeometry x="616" y="-20.56" width="90" height="60" as="geometry" />
        </mxCell>
        <mxCell id="s4BdupJoC0_CT1MNcl7A-14" value="" style="edgeStyle=orthogonalEdgeStyle;rounded=0;orthogonalLoop=1;jettySize=auto;html=1;noEdgeStyle=1;orthogonal=1;exitX=0.5;exitY=1;exitDx=0;exitDy=0;entryX=0.5;entryY=0;entryDx=0;entryDy=0;" parent="WIyWlLk6GJQsqaUBKTNV-1" source="s4BdupJoC0_CT1MNcl7A-9" edge="1" target="s4BdupJoC0_CT1MNcl7A-6">
          <mxGeometry relative="1" as="geometry">
            <mxPoint x="80" y="960" as="targetPoint" />
          </mxGeometry>
        </mxCell>
        <mxCell id="s4BdupJoC0_CT1MNcl7A-9" value="Fix de resultados OCR" style="rounded=0;whiteSpace=wrap;html=1;shadow=1;" parent="WIyWlLk6GJQsqaUBKTNV-1" vertex="1">
          <mxGeometry x="980" y="29.44444444444445" width="110" height="60" as="geometry" />
        </mxCell>
        <mxCell id="s4BdupJoC0_CT1MNcl7A-16" value="" style="edgeStyle=orthogonalEdgeStyle;rounded=0;orthogonalLoop=1;jettySize=auto;html=1;noEdgeStyle=1;orthogonal=1;exitX=1;exitY=0.5;exitDx=0;exitDy=0;entryX=0;entryY=0.5;entryDx=0;entryDy=0;" parent="WIyWlLk6GJQsqaUBKTNV-1" source="s4BdupJoC0_CT1MNcl7A-2" target="s4BdupJoC0_CT1MNcl7A-15" edge="1">
          <mxGeometry relative="1" as="geometry">
            <mxPoint x="280" y="300" as="sourcePoint" />
            <mxPoint x="780" y="300" as="targetPoint" />
          </mxGeometry>
        </mxCell>
        <mxCell id="s4BdupJoC0_CT1MNcl7A-17" value="Sim" style="edgeLabel;html=1;align=center;verticalAlign=middle;resizable=0;points=[];fontStyle=1;fontSize=18;" parent="s4BdupJoC0_CT1MNcl7A-16" vertex="1" connectable="0">
          <mxGeometry x="-0.0228" relative="1" as="geometry">
            <mxPoint as="offset" />
          </mxGeometry>
        </mxCell>
        <mxCell id="s4BdupJoC0_CT1MNcl7A-15" value="Conversão de resultados" style="rounded=0;whiteSpace=wrap;html=1;shadow=1;" parent="WIyWlLk6GJQsqaUBKTNV-1" vertex="1">
          <mxGeometry x="800" y="29.44444444444445" width="90" height="60" as="geometry" />
        </mxCell>
        <mxCell id="s4BdupJoC0_CT1MNcl7A-24" style="edgeStyle=orthogonalEdgeStyle;rounded=0;orthogonalLoop=1;jettySize=auto;html=1;entryX=1;entryY=0.5;entryDx=0;entryDy=0;exitX=0.5;exitY=1;exitDx=0;exitDy=0;dashed=1;noEdgeStyle=1;orthogonal=1;" parent="WIyWlLk6GJQsqaUBKTNV-1" source="s4BdupJoC0_CT1MNcl7A-30" target="s4BdupJoC0_CT1MNcl7A-22" edge="1">
          <mxGeometry relative="1" as="geometry">
            <Array as="points">
              <mxPoint x="643" y="296" />
            </Array>
          </mxGeometry>
        </mxCell>
        <mxCell id="s4BdupJoC0_CT1MNcl7A-26" style="edgeStyle=orthogonalEdgeStyle;rounded=0;orthogonalLoop=1;jettySize=auto;html=1;entryX=1;entryY=0.5;entryDx=0;entryDy=0;noEdgeStyle=1;orthogonal=1;exitX=0;exitY=0.5;exitDx=0;exitDy=0;" parent="WIyWlLk6GJQsqaUBKTNV-1" source="s4BdupJoC0_CT1MNcl7A-30" target="s4BdupJoC0_CT1MNcl7A-20" edge="1">
          <mxGeometry relative="1" as="geometry" />
        </mxCell>
        <mxCell id="s4BdupJoC0_CT1MNcl7A-19" value="Extração de conteúdo" style="rounded=0;whiteSpace=wrap;html=1;shadow=1;" parent="WIyWlLk6GJQsqaUBKTNV-1" vertex="1">
          <mxGeometry x="775" y="172.00444444444446" width="120" height="60" as="geometry" />
        </mxCell>
        <mxCell id="s4BdupJoC0_CT1MNcl7A-28" style="edgeStyle=orthogonalEdgeStyle;rounded=0;orthogonalLoop=1;jettySize=auto;html=1;noEdgeStyle=1;orthogonal=1;exitX=0;exitY=0.5;exitDx=0;exitDy=0;entryX=1;entryY=0.5;entryDx=0;entryDy=0;" parent="WIyWlLk6GJQsqaUBKTNV-1" source="s4BdupJoC0_CT1MNcl7A-20" target="s4BdupJoC0_CT1MNcl7A-23" edge="1">
          <mxGeometry relative="1" as="geometry" />
        </mxCell>
        <mxCell id="s4BdupJoC0_CT1MNcl7A-20" value="OUTPUT" style="rounded=0;whiteSpace=wrap;html=1;shadow=1;" parent="WIyWlLk6GJQsqaUBKTNV-1" vertex="1">
          <mxGeometry x="291" y="172.00888888888892" width="120" height="60" as="geometry" />
        </mxCell>
        <mxCell id="s4BdupJoC0_CT1MNcl7A-25" style="edgeStyle=orthogonalEdgeStyle;rounded=0;orthogonalLoop=1;jettySize=auto;html=1;dashed=1;noEdgeStyle=1;orthogonal=1;exitX=0;exitY=0.5;exitDx=0;exitDy=0;entryX=0.436;entryY=1.05;entryDx=0;entryDy=0;entryPerimeter=0;" parent="WIyWlLk6GJQsqaUBKTNV-1" source="s4BdupJoC0_CT1MNcl7A-22" target="s4BdupJoC0_CT1MNcl7A-20" edge="1">
          <mxGeometry relative="1" as="geometry">
            <Array as="points">
              <mxPoint x="343" y="293" />
            </Array>
          </mxGeometry>
        </mxCell>
        <mxCell id="s4BdupJoC0_CT1MNcl7A-22" value="Modernização de texto" style="rounded=0;whiteSpace=wrap;html=1;shadow=1;" parent="WIyWlLk6GJQsqaUBKTNV-1" vertex="1">
          <mxGeometry x="442" y="265.00444444444446" width="110" height="60" as="geometry" />
        </mxCell>
        <mxCell id="s4BdupJoC0_CT1MNcl7A-23" value="Validação" style="rounded=0;whiteSpace=wrap;html=1;shadow=1;" parent="WIyWlLk6GJQsqaUBKTNV-1" vertex="1">
          <mxGeometry y="172.00888888888892" width="120" height="60" as="geometry" />
        </mxCell>
        <mxCell id="s4BdupJoC0_CT1MNcl7A-31" value="" style="edgeStyle=orthogonalEdgeStyle;rounded=0;orthogonalLoop=1;jettySize=auto;html=1;noEdgeStyle=1;orthogonal=1;exitX=0;exitY=0.5;exitDx=0;exitDy=0;" parent="WIyWlLk6GJQsqaUBKTNV-1" target="s4BdupJoC0_CT1MNcl7A-30" edge="1" source="s4BdupJoC0_CT1MNcl7A-19">
          <mxGeometry relative="1" as="geometry">
            <mxPoint x="80" y="1180" as="sourcePoint" />
            <mxPoint x="1290" y="300" as="targetPoint" />
          </mxGeometry>
        </mxCell>
        <mxCell id="s4BdupJoC0_CT1MNcl7A-30" value="Pós Processamento&lt;br&gt;de texto" style="rounded=0;whiteSpace=wrap;html=1;shadow=1;" parent="WIyWlLk6GJQsqaUBKTNV-1" vertex="1">
          <mxGeometry x="583" y="172.00444444444446" width="120" height="60" as="geometry" />
        </mxCell>
      </root>
    </mxGraphModel>
  </diagram>
</mxfile>
